# File created by Blade
# Date/Time:  Tue Apr 07 20:29:34 2015
# Frame Rate: 120.000 fps
#------------------------------------------------------
:FULLY-SPECIFIED
:DEGREES
2640
root 3.191434 33.846966 -3.626550 21.449085 -35.640307 -36.534109
Spine 3.708131 21.062294 22.504262
Head 10.937528 1.683313 5.559559
LeftShoulder -24.841166 42.290803 14.913974
LeftArm 52.657505 -50.954600 -68.896702
LeftForeArm 4.115550 -0.000000 7.257791
LeftHand 9.334628 -0.000000 1.951152
LeftHandThumb1 -26.253704 0.000000 33.147579
RightShoulder 3.671111 7.579348 -18.729414
RightArm 25.852067 -9.547032 64.508342
RightForeArm -4.567019 -0.000000 19.806215
RightHand 4.389759 -0.000000 11.134115
RightHandThumb1 -24.326973 -0.000000 -32.862282
LeftUpLeg -3.245339 13.210066 21.279953
LeftLeg 14.183445 -0.000000 -0.000000
LeftFoot -18.500014 18.134478 -20.837611
LeftToeBase -2.988674 -0.000000 0.000000
RightUpLeg -77.702871 -49.788280 -2.269374
RightLeg 95.999502 -0.000000 -0.000000
RightFoot 39.221885 -25.629977 4.844106
RightToeBase 32.414639 -0.000000 -0.000000
2641
root 3.193482 33.860461 -3.624110 21.351416 -35.426697 -36.418308
Spine 3.644458 20.860922 22.432794
Head 10.967887 1.692411 5.639404
LeftShoulder -24.788429 42.302460 14.958807
LeftArm 52.836547 -50.955318 -68.987711
LeftForeArm 4.175987 -0.000000 7.365136
LeftHand 9.358421 -0.000000 2.080542
LeftHandThumb1 -26.253704 0.000000 33.147579
RightShoulder 3.630696 7.539978 -18.722636
RightArm 25.667307 -9.482362 64.458656
RightForeArm -4.580131 -0.000000 19.659039
RightHand 4.417924 -0.000000 11.403953
RightHandThumb1 -24.326973 -0.000000 -32.862282
LeftUpLeg -3.275189 13.364649 21.304928
LeftLeg 14.128469 -0.000000 -0.000000
LeftFoot -18.510252 17.613692 -21.227863
LeftToeBase -2.474899 -0.000000 0.000000
RightUpLeg -77.768335 -50.029097 -1.913839
RightLeg 96.323623 -0.000000 -0.000000
RightFoot 39.194334 -25.670461 4.945608
RightToeBase 32.532431 -0.000000 -0.000000
2642
root 3.191799 33.873382 -3.617363 21.247570 -35.212769 -36.318042
Spine 3.588894 20.675136 22.377014
Head 10.990554 1.659797 5.704258
LeftShoulder -24.764657 42.327076 14.965686
LeftArm 52.992656 -50.907212 -68.997108
LeftForeArm 4.203825 -0.000000 7.477760
LeftHand 9.431793 -0.000000 2.260458
LeftHandThumb1 -26.253704 0.000000 33.147579
RightShoulder 3.561659 7.499784 -18.764655
RightArm 25.473394 -9.373569 64.482654
RightForeArm -4.688039 -0.000000 19.496783
RightHand 4.334372 -0.000000 11.424208
RightHandThumb1 -24.326973 -0.000000 -32.862282
LeftUpLeg -3.251751 13.596452 21.352748
LeftLeg 14.024438 -0.000000 -0.000000
LeftFoot -18.451650 17.023456 -21.548921
LeftToeBase -2.188232 -0.000000 0.000000
RightUpLeg -77.800834 -50.270167 -1.601014
RightLeg 96.695555 -0.000000 -0.000000
RightFoot 39.188788 -25.670097 5.130977
RightToeBase 32.433939 -0.000000 -0.000000
2643
root 3.190606 33.886811 -3.614897 21.170560 -34.963491 -36.244918
Spine 3.511377 20.454180 22.348696
Head 11.034680 1.652381 5.752611
LeftShoulder -24.747747 42.329488 14.980840
LeftArm 53.029502 -50.801394 -68.888336
LeftForeArm 4.108793 -0.000000 7.566226
LeftHand 9.436761 -0.000000 2.464057
LeftHandThumb1 -26.253704 0.000000 33.147579
RightShoulder 3.565145 7.467483 -18.812330
RightArm 25.228104 -9.132215 64.552721
RightForeArm -4.865930 -0.000000 19.315946
RightHand 4.159469 -0.000000 11.302196
RightHandThumb1 -24.326973 -0.000000 -32.862282
LeftUpLeg -3.258337 13.699935 21.421250
LeftLeg 13.923941 -0.000000 -0.000000
LeftFoot -18.457088 16.550255 -21.911338
LeftToeBase -1.730055 -0.000000 0.000000
RightUpLeg -77.870606 -50.530584 -1.233815
RightLeg 97.097692 -0.000000 -0.000000
RightFoot 39.197440 -25.653700 5.267305
RightToeBase 32.595142 -0.000000 -0.000000
2644
root 3.185226 33.900955 -3.612187 21.084270 -34.698794 -36.168269
Spine 3.419165 20.246019 22.302477
Head 11.103938 1.608848 5.827237
LeftShoulder -24.712483 42.339592 15.010089
LeftArm 53.129233 -50.700534 -68.792094
LeftForeArm 3.965540 0.000000 7.579667
LeftHand 9.551749 0.000000 2.594836
LeftHandThumb1 -26.253704 0.000000 33.147579
RightShoulder 3.530852 7.378797 -18.850050
RightArm 25.064980 -9.007833 64.517888
RightForeArm -4.858449 0.000000 19.091276
RightHand 4.005660 -0.000000 11.382224
RightHandThumb1 -24.326973 -0.000000 -32.862282
LeftUpLeg -3.246955 13.821940 21.496891
LeftLeg 13.795269 -0.000000 -0.000000
LeftFoot -18.438004 16.076484 -22.247453
LeftToeBase -1.319843 -0.000000 0.000000
RightUpLeg -77.914900 -50.786478 -0.903323
RightLeg 97.561703 -0.000000 -0.000000
RightFoot 39.118304 -25.570048 5.380843
RightToeBase 32.593063 -0.000000 -0.000000
2645
root 3.178757 33.914778 -3.609328 21.020193 -34.410537 -36.094180
Spine 3.282120 20.012478 22.246418
Head 11.185361 1.584657 5.898015
LeftShoulder -24.680731 42.326539 15.059893
LeftArm 53.232948 -50.632495 -68.779101
LeftForeArm 3.907484 -0.000000 7.628030
LeftHand 9.671615 -0.000000 2.701771
LeftHandThumb1 -26.253704 0.000000 33.147579
RightShoulder 3.530412 7.242941 -18.873623
RightArm 24.923014 -8.903845 64.414592
RightForeArm -4.756713 0.000000 18.912729
RightHand 4.074322 0.000000 11.519059
RightHandThumb1 -24.326973 -0.000000 -32.862282
LeftUpLeg -3.270378 13.888786 21.568120
LeftLeg 13.664254 -0.000000 -0.000000
LeftFoot -18.433074 15.682574 -22.566214
LeftToeBase -1.005238 -0.000000 0.000000
RightUpLeg -77.983636 -51.043445 -0.562104
RightLeg 98.076036 -0.000000 -0.000000
RightFoot 39.035271 -25.540512 5.507103
RightToeBase 32.632062 -0.000000 -0.000000
2646
root 3.172435 33.928334 -3.606643 20.934971 -34.101482 -36.041950
Spine 3.176799 19.777540 22.239085
Head 11.278720 1.541465 5.927421
LeftShoulder -24.592126 42.314621 15.134283
LeftArm 53.315968 -50.568383 -68.755158
LeftForeArm 3.787767 -0.000000 7.621144
LeftHand 9.738436 0.000000 2.755502
LeftHandThumb1 -26.253704 0.000000 33.147579
RightShoulder 3.540789 7.193959 -18.923960
RightArm 24.681550 -8.839062 64.309555
RightForeArm -4.630358 0.000000 18.753247
RightHand 4.336359 0.000000 11.732400
RightHandThumb1 -24.326973 -0.000000 -32.862282
LeftUpLeg -3.275105 13.914872 21.650761
LeftLeg 13.531513 -0.000000 -0.000000
LeftFoot -18.438407 15.410292 -22.835085
LeftToeBase -0.762940 -0.000000 0.000000
RightUpLeg -78.008404 -51.305145 -0.241577
RightLeg 98.625366 -0.000000 -0.000000
RightFoot 39.026476 -25.523646 5.509948
RightToeBase 32.802209 -0.000000 -0.000000
2647
root 3.163413 33.940458 -3.600534 20.837245 -33.809098 -35.956730
Spine 3.064118 19.611883 22.183806
Head 11.336700 1.438967 5.961901
LeftShoulder -24.463061 42.262410 15.227836
LeftArm 53.498384 -50.569442 -68.846403
LeftForeArm 3.752803 -0.000000 7.608499
LeftHand 9.838275 -0.000000 2.778357
LeftHandThumb1 -26.253704 0.000000 33.147579
RightShoulder 3.501036 7.133585 -18.944773
RightArm 24.430012 -8.641409 64.235611
RightForeArm -4.606274 -0.000000 18.536664
RightHand 4.300238 0.000000 11.943995
RightHandThumb1 -24.326973 -0.000000 -32.862282
LeftUpLeg -3.257148 13.974073 21.710092
LeftLeg 13.375250 -0.000000 -0.000000
LeftFoot -18.420040 15.064080 -23.102540
LeftToeBase -0.403695 -0.000000 0.000000
RightUpLeg -78.060897 -51.591797 0.045247
RightLeg 99.251679 -0.000000 -0.000000
RightFoot 39.004839 -25.471076 5.552527
RightToeBase 32.719084 -0.000000 -0.000000
2648
root 3.151711 33.951288 -3.597955 20.761852 -33.548685 -35.891849
Spine 2.956867 19.494408 22.113569
Head 11.354878 1.348565 6.018389
LeftShoulder -24.349718 42.225612 15.326174
LeftArm 53.645844 -50.530273 -68.875324
LeftForeArm 3.663292 -0.000000 7.555887
LeftHand 9.925609 -0.000000 2.793553
LeftHandThumb1 -26.253704 0.000000 33.147579
RightShoulder 3.426123 6.983949 -18.961561
RightArm 24.312201 -8.574319 64.054538
RightForeArm -4.276520 -0.000000 18.343905
RightHand 4.067665 -0.000000 11.848055
RightHandThumb1 -24.326973 -0.000000 -32.862282
LeftUpLeg -3.254833 14.060082 21.772339
LeftLeg 13.246005 -0.000000 -0.000000
LeftFoot -18.377497 14.783558 -23.313112
LeftToeBase -0.151138 -0.000000 0.000000
RightUpLeg -78.152638 -51.822619 0.348713
RightLeg 99.935122 -0.000000 -0.000000
RightFoot 38.981799 -25.392482 5.607170
RightToeBase 32.739891 -0.000000 -0.000000
